<svg height="32" viewBox="0 0 261 32" width="261" xmlns="http://www.w3.org/2000/svg"><g><path d="m8.8896 14.4192c-2.1696-.2688-2.9888-.608-2.9888-1.4592 0-.8128.6784-1.3888 2.0032-1.3888 1.3888 0 2.0352.576 2.272 1.7664h5.4976c-.4096-4.2432-3.4624-5.7344-7.84-5.7344-4.1088 0-7.6032 1.9008-7.6032 5.8368 0 3.6992 2.0032 5.088 6.752 5.7024 2.4448.3392 3.2896.7488 3.2896 1.5936 0 .8832-.6784 1.4592-2.1696 1.4592-1.728 0-2.3104-.7104-2.5088-2.0032h-5.5936c.1344 3.936 3.0848 6.0416 8.1472 6.0416 4.9216 0 8.0448-1.9008 8.0448-6.1056-.0064-3.808-2.3808-5.0944-7.3024-5.7088z"/><path d="m26.656 21.7856c-2.3104 0-3.4944-1.5936-3.4944-4.6848v-.2688c0-2.9888 1.2544-4.512 3.392-4.512 1.7664 0 2.5792.9152 2.848 2.5792h5.7024c-.3392-5.3952-4.3456-7.296-8.6848-7.296-5.2288 0-9.4656 3.392-9.4656 9.2992v.2688c0 5.9712 4.0384 9.0624 9.3312 9.0624 5.7344 0 8.7552-2.9184 8.9216-7.3984h-5.4656c-.1984 1.9328-1.3888 2.9504-3.0848 2.9504z"/><path d="m37.0432 8.0768h6.0736v17.7472h-6.0736z"/><path d="m40.064.1024c-1.9008 0-3.328 1.3568-3.328 3.1552s1.4272 3.1232 3.328 3.1232 3.36-1.3248 3.36-3.1232-1.4592-3.1552-3.36-3.1552z"/><path d="m54.5216 7.6032c-5.3632 0-9.6064 3.5968-9.6064 9.2992v.2688c0 5.8048 4.0704 9.0624 9.6384 9.0624 5.3632 0 8.448-2.272 8.992-6.2784h-5.7024c-.2368 1.1904-1.088 2.1056-3.0848 2.1056-2.1696 0-3.5264-1.3568-3.6992-3.6992h12.4928v-1.5936c0-6.3872-4.1728-9.1648-9.0304-9.1648zm-3.392 7.328c.3072-2.1376 1.5616-3.328 3.392-3.328 1.9712 0 3.0208 1.1904 3.1232 3.328z"/><path d="m77.44 7.6032c-2.9504 0-4.8896 1.4912-5.8368 3.328v-2.848h-6.0736v17.7472h6.0736v-9.952c0-2.272 1.2224-3.36 3.0208-3.36 1.7664 0 2.5472.9856 2.5472 2.9888v10.3168h6.0736v-11.5392c0-4.544-2.3808-6.6816-5.8048-6.6816z"/><path d="m92.6016 19.5456v-7.328h3.4944v-4.1408h-3.4944v-3.6992h-6.0736v3.6992h-2.1376v4.1408h2.1376v7.904c0 4.1728 2.24 6.1056 6.2464 6.1056 1.4272 0 2.5792-.3072 3.36-.5056v-4.6144c-.544.2048-1.0496.3072-1.728.3072-1.1648 0-1.8048-.576-1.8048-1.8688z"/><path d="m98.2208 8.0768h6.0736v17.7472h-6.0736z"/><path d="m101.2352.1024c-1.9008 0-3.328 1.3568-3.328 3.1552s1.4272 3.1232 3.328 3.1232 3.36-1.3248 3.36-3.1232-1.4592-3.1552-3.36-3.1552z"/><path d="m108.096 6.5152v1.5616h-2.24v4.1408h2.24v13.6064h6.0416v-13.6064h3.5968v-4.1408h-3.5968v-1.5616c0-1.152.608-1.9328 2.0032-1.9328.6784 0 1.152.0704 1.5936.2048v-4.448c-.7808-.2048-1.5936-.3392-2.7136-.3392-4.1728 0-6.9248 2.1056-6.9248 6.5152z"/><path d="m122.1312.1024c-1.9008 0-3.328 1.3568-3.328 3.1552s1.4272 3.1232 3.328 3.1232 3.36-1.3248 3.36-3.1232-1.4592-3.1552-3.36-3.1552z"/><path d="m119.1104 8.0768h6.0736v17.7472h-6.0736z"/><path d="m136.6912 21.7856c-2.3104 0-3.4944-1.5936-3.4944-4.6848v-.2688c0-2.9888 1.2544-4.512 3.392-4.512 1.7664 0 2.5792.9152 2.848 2.5792h5.7024c-.3392-5.3952-4.3456-7.296-8.6848-7.296-5.2288 0-9.4656 3.392-9.4656 9.2992v.2688c0 5.9712 4.0384 9.0624 9.3312 9.0624 5.7344 0 8.7552-2.9184 8.9216-7.3984h-5.4656c-.1984 1.9328-1.3888 2.9504-3.0848 2.9504z"/><path d="m159.904 11.264v-3.1872h-2.816v17.7472h2.816v-9.7408c0-4.3776 2.272-5.4976 5.8368-5.664v-2.6496c-3.1872.1024-4.7168 1.4976-5.8368 3.4944z"/><path d="m175.0208 7.7696c-4.8896 0-8.3136 3.7312-8.3136 9.0944v.2688c0 5.4656 3.5648 8.992 8.5824 8.992 4.0064 0 6.9568-1.8688 7.5648-5.4272h-2.816c-.3712 2.0672-1.9712 3.0912-4.7168 3.0912-3.6288 0-5.568-2.24-5.7024-6.2784h13.369608v-.9152c.006392-6.3488-3.865608-8.8256-7.968008-8.8256zm-5.2928 7.4688c.4736-3.1552 2.4064-5.1264 5.2928-5.1264 2.9184 0 4.8192 1.4592 5.088 5.1264z"/><path d="m195.0272 7.7696c-2.5792 0-4.9856 1.5616-6.0096 3.2896v-2.9888h-2.816v23.9296h2.816v-9.0944c1.0176 1.7664 3.0912 3.2256 6.0096 3.2256 4.8896 0 8.0768-3.7312 8.0768-9.1648v-.2688c0-5.536-3.4304-8.928-8.0768-8.928zm5.152 9.3312c0 4.3072-1.9008 6.688-5.4272 6.688-3.4624 0-5.8368-2.1376-5.8368-6.688v-.2688c0-4.544 2.5088-6.72 5.8048-6.72 2.9888 0 5.4656 2.24 5.4656 6.72v.2688z"/><path d="m213.9136 7.7696c-5.024 0-8.7232 3.7312-8.7232 9.0624v.2688c0 5.1904 3.6288 9.024 8.6848 9.024s8.755208-3.6992 8.755208-9.0624v-.2688c.006392-5.3248-3.692808-9.024-8.716808-9.024zm5.8048 9.3312c0 4.0064-2.24 6.688-5.8048 6.688-3.5968 0-5.8048-2.6496-5.8048-6.688v-.2688c0-4.0704 2.24-6.72 5.8048-6.72 3.5264 0 5.8048 2.6496 5.8048 6.752z"/><path d="m228.6336 11.264v-3.1872h-2.816v17.7472h2.816v-9.7408c0-4.3776 2.272-5.4976 5.8368-5.664v-2.6496c-3.1872.1024-4.7168 1.4976-5.8368 3.4944z"/><path d="m241.4912 21.1072v-10.656h4.1408v-2.3744h-4.1408v-4.0384h-2.816v4.0384h-2.5472v2.3744h2.5472v10.9248c0 2.784 1.5616 4.6848 4.7872 4.6848 1.152 0 1.8304-.1728 2.4064-.3712v-2.3744c-.608.2368-1.2864.3712-2.1696.3712-1.4272 0-2.208-.8512-2.208-2.5792z"/><path d="m254.7328 15.4752c-3.2576-.576-4.1408-1.2224-4.1408-2.816 0-1.5296 1.3248-2.5472 3.36-2.5472 2.24 0 3.328.8512 3.7312 2.784h2.7136c-.4736-3.8336-3.2256-5.1264-6.4128-5.1264-2.784 0-6.0096 1.696-6.0096 4.9856 0 3.0912 1.5616 4.3776 6.176 5.2288 2.7456.5056 4.1408 1.12 4.1408 2.9888 0 1.9008-1.1904 2.816-3.8656 2.816-2.848 0-3.968-1.3248-4.1728-3.4304h-2.7456c.1728 3.6288 2.7136 5.7664 6.9568 5.7664 4.3072 0 6.5152-2.1696 6.5152-5.3952 0-3.7632-2.5792-4.576-6.2464-5.2544z"/></g></svg>